<?xml version="1.0" ?><svg viewBox="0 0 24 24" xmlns="http://www.w3.org/2000/svg"><title/><g id="office"><path d="M12.5,13h-1a1,1,0,0,0,0,2h1A1,1,0,0,0,12.5,13Z"/><path d="M12.5,9h-1a1,1,0,0,0,0,2h1A1,1,0,0,0,12.5,9Z"/><path d="M12.5,5h-1a1,1,0,0,0,0,2h1A1,1,0,0,0,12.5,5Z"/><path d="M8.5,13h-1a1,1,0,0,0,0,2h1A1,1,0,0,0,8.5,13Z"/><path d="M8.5,9h-1a1,1,0,0,0,0,2h1A1,1,0,0,0,8.5,9Z"/><path d="M8.5,5h-1a1,1,0,0,0,0,2h1A1,1,0,0,0,8.5,5Z"/><path d="M16.5,13h-1a1,1,0,0,0,0,2h1A1,1,0,0,0,16.5,13Z"/><path d="M16.5,9h-1a1,1,0,0,0,0,2h1A1,1,0,0,0,16.5,9Z"/><path d="M16.5,5h-1a1,1,0,0,0,0,2h1A1,1,0,0,0,16.5,5Z"/><path d="M22,21H21V2a1,1,0,0,0-1-1H4A1,1,0,0,0,3,2V21H2a1,1,0,0,0,0,2H22A1,1,0,0,0,22,21ZM10,21V19h4v2Zm6,0V18a1,1,0,0,0-1-1H9a1,1,0,0,0-1,1v3H5V3H19V21Z"/></g></svg>